# xmcd
#
# Track frame offsets: 
#        150
#        10809
#        23414
#        37860
#        48646
#        61424
#        75326
#        87621
#        100531
#        113893
#        124493
#        135944
#        147007
#        159022
#        171986
#        182219
#        191916
#        207445
#        220179
#        230703
#        242099
#        255587
#        268418
#        280021
#        290855
#        303620
#        316009
#        333885
#        349019
#
# Disc length: 4842 seconds
#
# Revision: 0
# Processed by: cddbd v1.5.2PL0 Copyright (c) Steve Scherf et al.
# Submitted via: ExactAudioCopyFreeDBPlugin 1.0
#
DISCID=a312e81d
DTITLE=Champion Jack Dupree - Rocks
DYEAR=2018
DGENRE=Blues
TTITLE0=All Night Party
TTITLE1=Stumbling Block Blues
TTITLE2=Number Nine Blues
TTITLE3=Shake Baby Shake
TTITLE4=Highway Blues
TTITLE5=Drunk Again
TTITLE6=Shim Sham Shimmy
TTITLE7=Somebody Changed The Lock
TTITLE8=The Ups
TTITLE9=Lonely Road Blues
TTITLE10=Story Of My Life (Fast Version)
TTITLE11=When I Got Married
TTITLE12=Dirty Woman
TTITLE13=Old Time Rock And Roll
TTITLE14=Down The Lane
TTITLE15=Rocky Mountain
TTITLE16=Just Like A Woman
TTITLE17=Shake Baby Shake
TTITLE18=The Wrong Woman
TTITLE19=You're Always Cryin' The Blues
TTITLE20=Woman Trouble Again
TTITLE21=My Baby's Like A Clock
TTITLE22=Hello Darlin'
TTITLE23=Lollipop Baby
TTITLE24=Shake Baby Shake (Slow Version)
TTITLE25=Old Time Rock And Roll (Fast Version)
TTITLE26=Stack-O-Lee
TTITLE27=Frankie And Johnny
TTITLE28=Nasty Boogie
EXTD=
EXTT0=
EXTT1=
EXTT2=
EXTT3=
EXTT4=
EXTT5=
EXTT6=
EXTT7=
EXTT8=
EXTT9=
EXTT10=
EXTT11=
EXTT12=
EXTT13=
EXTT14=
EXTT15=
EXTT16=
EXTT17=
EXTT18=
EXTT19=
EXTT20=
EXTT21=
EXTT22=
EXTT23=
EXTT24=
EXTT25=
EXTT26=
EXTT27=
EXTT28=
PLAYORDER=
